<svg version="1.0" xmlns="http://www.w3.org/2000/svg" viewBox="0 0 3767.7 2405.6" xml:space="preserve">
<style type="text/css">
	.st0{fill:#FDB61A;}
	.st1{fill:#23356E;}
</style>
<g id="Layer_1">
	<path class="st0" d="M1768.8,1183.8c-5.8,11.6-9,25-16.5,36.6c-6.6,12.8-20.5,27.8-23.6,29.5c-0.5,0.4-1.1,1-0.5,1.5
		c21.6,6,37-17.5,41.2-36.1l0.2-1c2-9.1,2.3-19.6,0.8-28.8C1769.9,1184.2,1769.8,1183.3,1768.8,1183.8z"/>
	<path class="st0" d="M1762.8,1149.9c-57,37.3-94.7,61.1-92,28.8c-31,22,0,34.4,18,27.9c-33.1,14.3-43.8-6.7-43.8-6.7
		c-8.4,42.2,60.1,24.9,68.4,16.3c-11.4,25.7-30.1,22.8-30.1,22.8C1718.2,1278.8,1765.6,1147.1,1762.8,1149.9z"/>
	<path class="st0" d="M2238.1,803.4c0,0-4.6-13-30.8-19.5c-26.2-6.4-105.7,14.6-174.4,33.6c0,0,16.4,17.5,7.1,56.6
		c-7.9,33.5-55,94.9-103,122.8c0,0,42.7-49.5,49.3-104.9c11.7-97.8-86-129.4-281.9-218.8c-170.2-77.7-298.2-187.1-322.3-280.5
		c0,0-21.3,68.8,18,142.6c44,82.7,121.2,118.2,121.2,118.2s-111.8-8.2-187-96.3c1.5,29.2,14,90.9,95.7,144
		c63.9,41.6,151.9,58.6,151.9,58.6s-56.4,25.5-175.7-15.5c42.8,59.6,157.7,97.9,260.7,108.2c0,0-20.7,8.7-58,10.2
		c-48.5,2-89.8-10.4-89.8-10.4s11.4,45.1,176.4,78.1c75.1,15.1,137.9,37.4,143.1,93.8c48.6-27.3,63.5-101.3,63.5-101.3
		s22.9,59.1-24.3,132.1c-41.8,64.7-112.8,87.2-112.8,87.2s122,9.2,308.6-148.4c36.5-30.8,146.7-123.6,185.4-134.1
		c18-4.9,30.3-1.7,32.2,11.1c0,0,8.2-13.4,10.5-29.3C2305.7,813,2290.6,790.2,2238.1,803.4z M2207.1,822.4c0,0.1,0,0.3,0,0.4
		c-0.8,4.6-7.5,7.2-15,5.9c-6.1-1.1-10.8-4.4-11.9-8l-24.1-1.5c0,0,22.2-13.8,45-6c0,0,13.4,8.5,24.6,10.3L2207.1,822.4z"/>
	<path class="st0" d="M1593.5,1112.7c37.5,22.2,80,13.5,102.4,6.1c25.4-7.8,56.5-23.7,93-53.6l-0.2,0c11-9.4,14.3-16.8,14.3-16.8
		c-180.8,15.9-325.8-80.5-325.8-80.5c-8,20.2,11.8,46.6,11.8,46.6l0.3,0.1c11.5,15.7,58,36.5,117.1,38.4
		c-27.5,14.7-85,14.2-85,14.2c28.3,61.3,105.5,22.8,122.6,13.4c0.8-0.3,1.5-0.6,2.3-1C1630.8,1104.9,1594.6,1113.2,1593.5,1112.7z"/>
	<path class="st1" d="M486,1895.1c-4-4.9-9-8.7-14.8-11.3c-5.9-2.6-12.6-3.9-20.3-3.9c-7.7,0-14.8,1.5-21.4,4.5
		c-6.6,3-12.2,7.1-17,12.5c-4.8,5.3-8.6,11.7-11.3,19c-2.7,7.3-4.1,15.3-4.1,23.9c0,8.7,1.4,16.7,4.1,24
		c2.7,7.3,6.4,13.6,11.1,18.9c4.7,5.3,10.3,9.5,16.7,12.5c6.4,3,13.2,4.5,20.6,4.5c8.4,0,15.8-1.7,22.3-5.2
		c6.5-3.5,11.8-8.4,16-14.7l34.1,25.4c-7.9,11-17.8,19.1-29.9,24.4c-12.1,5.2-24.5,7.9-37.2,7.9c-14.5,0-27.9-2.3-40.1-6.8
		c-12.2-4.5-22.8-11.1-31.7-19.5c-8.9-8.5-15.9-18.8-20.8-30.8c-5-12.1-7.5-25.5-7.5-40.4c0-14.9,2.5-28.3,7.5-40.4
		c5-12.1,11.9-22.3,20.8-30.8c8.9-8.5,19.5-15,31.7-19.5c12.2-4.5,25.6-6.8,40.1-6.8c5.2,0,10.7,0.5,16.4,1.4
		c5.7,1,11.3,2.5,16.8,4.6s10.8,4.9,15.9,8.4c5.1,3.5,9.6,7.8,13.6,12.8L486,1895.1z"/>
	<path class="st1" d="M648.6,1846.9h40.9v185.7h-40.9V1846.9z"/>
	<path class="st1" d="M867.5,1883.1h-53v-36.2h146.9v36.2h-53v149.5h-40.9V1883.1z"/>
	<path class="st1" d="M1132.7,1953.3l-69.8-106.5h50.9l39.3,69.5l41.7-69.5h48.5l-69.8,106.5v79.2h-40.9V1953.3z"/>
	<path class="st1" d="M1665.8,1895.1c-4-4.9-9-8.7-14.8-11.3c-5.9-2.6-12.6-3.9-20.3-3.9c-7.7,0-14.8,1.5-21.4,4.5
		c-6.6,3-12.2,7.1-17,12.5c-4.8,5.3-8.6,11.7-11.3,19c-2.7,7.3-4.1,15.3-4.1,23.9c0,8.7,1.4,16.7,4.1,24
		c2.7,7.3,6.4,13.6,11.1,18.9c4.7,5.3,10.3,9.5,16.7,12.5c6.4,3,13.2,4.5,20.6,4.5c8.4,0,15.8-1.7,22.3-5.2
		c6.5-3.5,11.8-8.4,16-14.7l34.1,25.4c-7.9,11-17.8,19.1-29.9,24.4c-12.1,5.2-24.5,7.9-37.2,7.9c-14.5,0-27.9-2.3-40.1-6.8
		c-12.2-4.5-22.8-11.1-31.7-19.5c-8.9-8.5-15.9-18.8-20.8-30.8c-5-12.1-7.5-25.5-7.5-40.4c0-14.9,2.5-28.3,7.5-40.4
		c5-12.1,11.9-22.3,20.8-30.8c8.9-8.5,19.5-15,31.7-19.5c12.2-4.5,25.6-6.8,40.1-6.8c5.2,0,10.7,0.5,16.4,1.4
		c5.7,1,11.3,2.5,16.8,4.6c5.5,2.1,10.8,4.9,15.9,8.4c5.1,3.5,9.6,7.8,13.6,12.8L1665.8,1895.1z"/>
	<path class="st1" d="M1818.9,1939.7c0-14.9,2.5-28.3,7.5-40.4c5-12.1,11.9-22.3,20.8-30.8c8.9-8.5,19.5-15,31.7-19.5
		c12.2-4.5,25.6-6.8,40.1-6.8c14.5,0,27.9,2.3,40.1,6.8c12.2,4.5,22.8,11.1,31.7,19.5c8.9,8.5,15.9,18.8,20.8,30.8
		c5,12.1,7.5,25.5,7.5,40.4c0,14.9-2.5,28.3-7.5,40.4c-5,12.1-11.9,22.3-20.8,30.8c-8.9,8.5-19.5,15-31.7,19.5
		c-12.2,4.5-25.6,6.8-40.1,6.8c-14.5,0-27.9-2.3-40.1-6.8c-12.2-4.5-22.8-11.1-31.7-19.5c-8.9-8.5-15.9-18.8-20.8-30.8
		C1821.4,1968,1818.9,1954.6,1818.9,1939.7z M1861.4,1939.7c0,8.7,1.4,16.7,4.1,24c2.7,7.3,6.6,13.6,11.7,18.9
		c5.1,5.3,11.1,9.5,18.2,12.5c7.1,3,15,4.5,23.7,4.5c8.7,0,16.7-1.5,23.7-4.5c7.1-3,13.2-7.1,18.2-12.5c5.1-5.3,9-11.6,11.7-18.9
		c2.7-7.3,4.1-15.2,4.1-24c0-8.6-1.4-16.5-4.1-23.9c-2.7-7.3-6.6-13.7-11.7-19c-5.1-5.3-11.1-9.5-18.2-12.5
		c-7.1-3-15-4.5-23.7-4.5c-8.7,0-16.7,1.5-23.7,4.5c-7.1,3-13.2,7.1-18.2,12.5c-5.1,5.3-9,11.7-11.7,19
		C1862.8,1923.2,1861.4,1931.1,1861.4,1939.7z"/>
	<path class="st1" d="M2153.6,1846.9h40.9v147.9h75.8v37.8h-116.7V1846.9z"/>
	<path class="st1" d="M2399.3,1846.9h40.9v147.9h75.8v37.8h-116.7V1846.9z"/>
	<path class="st1" d="M2645,1846.9h126.1v37.8h-85.2v34.6h80.5v37.8h-80.5v37.8h90v37.8H2645V1846.9z"/>
	<path class="st1" d="M3081.6,2019.4c-12.1,6.3-24.7,10.8-37.8,13.6c-13.1,2.8-26.5,4.2-40.1,4.2c-14.5,0-27.9-2.3-40.1-6.8
		c-12.2-4.5-22.8-11.1-31.7-19.5c-8.9-8.5-15.9-18.8-20.8-30.8c-5-12.1-7.5-25.5-7.5-40.4c0-14.9,2.5-28.3,7.5-40.4
		c5-12.1,11.9-22.3,20.8-30.8c8.9-8.5,19.5-15,31.7-19.5c12.2-4.5,25.6-6.8,40.1-6.8c14.9,0,28.5,1.8,41,5.4
		c12.5,3.6,23.5,9.7,32.9,18.5l-28.8,31.5c-5.6-5.8-11.9-10.1-18.9-13.1c-7-3-15.7-4.5-26.2-4.5c-8.7,0-16.7,1.5-23.7,4.5
		c-7.1,3-13.2,7.1-18.2,12.5c-5.1,5.3-9,11.7-11.7,19c-2.7,7.3-4.1,15.3-4.1,23.9c0,8.7,1.4,16.7,4.1,24
		c2.7,7.3,6.6,13.6,11.7,18.9c5.1,5.3,11.1,9.5,18.2,12.5c7.1,3,15,4.5,23.7,4.5c8.9,0,16.6-1,23.1-3c6.5-2,11.6-4.1,15.5-6.2
		v-30.2H3009v-37.8h72.6V2019.4z"/>
	<path class="st1" d="M3224,1846.9h126.1v37.8h-85.2v34.6h80.5v37.8h-80.5v37.8h89.9v37.8H3224V1846.9z"/>
	<path class="st1" d="M751,1358.3v385.3H639.5v-146.5H496.3v146.5H385.4v-344.8l-51.4-40.4h51.4h110.9v144.3h143.2v-144.3H751z"/>
	<path class="st1" d="M1112.7,1358.8c45.7,0,82.9,37.7,82.9,83.4v219c0,46.3-37.1,83.4-82.9,83.4H927.6
		c-46.3,0-83.4-37.1-83.4-83.4v-219c0-45.7,37.1-83.4,83.4-83.4H1112.7z M1087.4,1482.1c0-22.1-17.8-39.3-39.3-39.3h-58.7
		c-22.1,0-39.3,17.2-39.3,39.3V1622c0,21.5,17.2,39.3,39.3,39.3h58.7c21.5,0,39.3-17.8,39.3-39.3V1482.1z"/>
	<path class="st1" d="M2154.7,1359.4h349.8v0.6l-42.5,92.4h-77v291.2h-110.9v-291.2h-77.5l-42-92.4V1359.4z"/>
	<path class="st1" d="M2814.1,1358.4c45.8,0,83,37.7,83,83.6v219.4c0,46.4-37.2,83.6-83,83.6h-185.4c-46.4,0-83.6-37.2-83.6-83.6
		V1442c0-45.8,37.2-83.6,83.6-83.6H2814.1z M2788.8,1481.9c0-22.1-17.8-39.4-39.4-39.4h-58.8c-22.1,0-39.4,17.3-39.4,39.4v140.2
		c0,21.6,17.2,39.4,39.4,39.4h58.8c21.6,0,39.4-17.8,39.4-39.4V1481.9z"/>
	<path class="st1" d="M3265.8,1563.7v-203.3h109.6V1745h-97l-170.8-211v211h-109.6V1405l-57.3-44.6h57.3h103.6h0.6v0.5
		L3265.8,1563.7z"/>
	<path class="st1" d="M1654.6,1440.4v-82.2h-112.6v281.5h0c-6.5,12.7-19.7,21.6-34.8,21.6h-58.7c-19,0-34.3-13.1-38.2-30.5v-157.9
		c0,0,0-0.1,0-0.1v-114h-1.1v-1.4h-106h-52.7l52.5,37.5V1634h0.2v27.3c0,46.3,37.1,83.4,83.4,83.4h185.1
		c45.7,0,82.9-37.1,82.9-83.4v-219C1654.7,1441.6,1654.6,1441,1654.6,1440.4z"/>
	<path class="st1" d="M2102.7,1617.2c-0.1-28.6-16.6-51.7-31.6-67.2h0c-31.4-28.3-89.7-35.4-161.9-47.2l-31.6-5.7
		c-0.9-0.1-1.8-0.3-2.7-0.5c-3.9-1-7.4-3-10.2-5.6c-4.8-3.6-7.8-8.8-7.8-14.7v-29.8c0-10.9,10.6-20,24.3-20h86.4
		c13.3,0,24.2,9,24.2,20v16.8v6.4c-0.1,3-0.2,5.9-0.4,8.7h0h0.1h110.8c0-19.7,0.6-44.6,0-64.1c0.9-31-39.6-54.5-77.6-59.6
		c-2-0.3-3.9-0.5-5.9-0.7c-0.1,0-0.2,0-0.3,0c-0.4,0-0.7,0-1.1,0h-15.1h-178.8v0.1c-0.3,0-0.5,0-0.5,0
		c-61.8,1.7-86.2,40.5-85.7,103.7c0.1,8.3,0.4,16.7,0.4,25c0.1,28.6,16.6,51.7,31.6,67.2h0c31.4,28.3,89.7,35.4,161.9,47.2
		l31.6,5.7c0.9,0.1,1.8,0.3,2.7,0.5c3.9,1,7.4,3,10.2,5.6c4.8,3.6,7.8,8.8,7.8,14.7v29.8c0,10.9-10.6,20-24.3,20h-86.4
		c-13.3,0-24.2-9-24.2-20v-16.8v-6.4v-6.6c0-0.7,0.2-1.4,0.3-2.1h-110.8c0,19.7-0.6,44.6,0,64.1c-0.9,31,39.6,54.5,77.6,59.6
		c2,0.3,3.9,0.5,5.9,0.7c0.1,0,0.2,0,0.3,0c0.4,0,0.7,0,1.1,0h15.1H2017v-0.1c0.3,0,0.5,0,0.5,0c61.8-1.7,86.2-40.5,85.7-103.7
		C2103.1,1633.9,2102.7,1625.5,2102.7,1617.2z"/>
</g>
</svg>
